<?xml version="1.0" encoding="UTF-8"?>
<svg xmlns="http://www.w3.org/2000/svg" viewBox="0 0 96 96" role="img" aria-label="Learning Bank">
  <title>Learning Bank icon</title>
  <defs>
    <linearGradient id="lbBrandGradientIcon" x1="0%" y1="0%" x2="100%" y2="100%">
      <stop offset="0%" stop-color="#054d28"/>
      <stop offset="55%" stop-color="#2ead4b"/>
      <stop offset="100%" stop-color="#9fe870"/>
    </linearGradient>
    <linearGradient id="lbPigHighlightIcon" x1="0%" y1="0%" x2="0%" y2="100%">
      <stop offset="0%" stop-color="#FFFFFF" stop-opacity="0.35"/>
      <stop offset="100%" stop-color="#FFFFFF" stop-opacity="0"/>
    </linearGradient>
  </defs>

  <rect x="0" y="0" width="96" height="96" rx="22" ry="22" fill="url(#lbBrandGradientIcon)"/>

  <!-- Graduation cap -->
  <polygon points="28,32 68,32 48,40 8,40" fill="#0A2540"/>
  <polygon points="28,32 68,32 88,40 48,40" fill="#0A2540"/>
  <path d="M 34 39 Q 48 44 62 39 L 62 44 Q 48 48 34 44 Z" fill="#0A2540"/>
  <line x1="72" y1="37" x2="78" y2="48" stroke="#FBBF24" stroke-width="1.6" stroke-linecap="round"/>
  <circle cx="78" cy="49" r="2.2" fill="#FBBF24"/>

  <!-- Pig -->
  <ellipse cx="48" cy="66" rx="26" ry="18" fill="#FFFFFF"/>
  <ellipse cx="48" cy="62" rx="22" ry="12" fill="url(#lbPigHighlightIcon)"/>
  <ellipse cx="71" cy="66" rx="6" ry="5" fill="#FFFFFF"/>
  <circle cx="70" cy="65" r="0.9" fill="#0A2540"/>
  <circle cx="72.5" cy="65" r="0.9" fill="#0A2540"/>
  <circle cx="60" cy="59" r="1.6" fill="#0A2540"/>
  <path d="M 56 48 L 62 48 L 59 54 Z" fill="#FFFFFF"/>
  <rect x="40" y="51" width="12" height="2.4" rx="1.2" ry="1.2" fill="#0A2540"/>
  <rect x="32" y="80" width="5" height="6" rx="1.5" fill="#FFFFFF"/>
  <rect x="42" y="81" width="5" height="6" rx="1.5" fill="#FFFFFF"/>
  <rect x="56" y="81" width="5" height="6" rx="1.5" fill="#FFFFFF"/>
  <rect x="66" y="80" width="5" height="6" rx="1.5" fill="#FFFFFF"/>
  <path d="M 22 62 q -4 -2 -2 -6 q 2 -4 6 -2" fill="none" stroke="#FFFFFF" stroke-width="2.2" stroke-linecap="round"/>

  <!-- Coin -->
  <circle cx="46" cy="44" r="3.2" fill="#FBBF24" stroke="#0A2540" stroke-width="0.6"/>
  <text x="46" y="46.2" text-anchor="middle" font-family="Inter, system-ui, sans-serif" font-size="4.4" font-weight="700" fill="#0A2540">$</text>
</svg>
